<svg xmlns="http://www.w3.org/2000/svg" width="24" height="24" fill="currentColor" class="bi bi-twitter" viewBox="0 0 16 16">
  <path d="M5.026 15c6.1 0 9.434-5.047 9.434-9.404 0-.144 0-.289-.01-.432A6.748 6.748 0 0 0 16 3.293a6.688 6.688 0 0 1-1.889.517 3.276 3.276 0 0 0 1.437-1.804 6.72 6.72 0 0 1-2.125.812A3.301 3.301 0 0 0 7.882 8.23a9.325 9.325 0 0 1-6.745-3.418A3.288 3.288 0 0 0 3.295 8c0 .045.006.089.01.132A9.308 9.308 0 0 1 .96 6.545a3.303 3.303 0 0 0 1.015 4.33 3.25 3.25 0 0 1-1.48-.41v.041c0 1.578 1.103 2.894 2.572 3.195a3.297 3.297 0 0 1-1.474.056 3.309 3.309 0 0 0 3.065 2.281A6.626 6.626 0 0 1 0 13.294a9.275 9.275 0 0 0 5.026 1.48"/>
</svg>
